<?xml version="1.0" encoding="UTF-8"?>
<svg version="1.1" xmlns="http://www.w3.org/2000/svg" width="500" height="483">
<path d="M0 0 C11.53944226 10.28767805 22.1083195 21.16568499 31.171875 33.70629883 C31.58211914 34.26687988 31.99236328 34.82746094 32.41503906 35.4050293 C63.16068704 77.87199913 76.43096973 132.90174452 68.171875 184.70629883 C58.99501733 237.68746804 30.99449455 285.98459986 -12.828125 317.70629883 C-13.37807129 318.11122559 -13.92801758 318.51615234 -14.49462891 318.93334961 C-56.97203823 349.90412562 -111.96566608 362.71504436 -163.828125 354.70629883 C-205.42553898 347.6071633 -242.87036333 329.23232133 -273.36474609 300.10229492 C-274.3391403 299.17276771 -275.3186499 298.24857301 -276.30322266 297.32983398 C-288.88916176 285.56498745 -299.47299423 271.77485047 -307.828125 256.70629883 C-308.28574219 255.88387695 -308.74335938 255.06145508 -309.21484375 254.21411133 C-336.57398474 204.55973205 -342.99037688 149.09227883 -327.3671875 94.45239258 C-318.01170153 63.66188897 -301.35363596 36.33566761 -279.22412109 13.16967773 C-278.29459389 12.19528353 -277.37039918 11.21577393 -276.45166016 10.23120117 C-208.14532147 -62.84237581 -86.3425842 -68.49253502 0 0 Z " fill="#CB0000" transform="translate(379.828125,79.293701171875)"/>
<path d="M0 0 C5.27549635 4.06379392 10.44422001 8.26450159 15.3125 12.8125 C14.3225 13.8025 13.3325 14.7925 12.3125 15.8125 C11.4153125 15.17183594 10.518125 14.53117187 9.59375 13.87109375 C0.60424953 7.58611843 -8.39470958 2.62216918 -18.6875 -1.1875 C-19.656875 -1.5484375 -20.62625 -1.909375 -21.625 -2.28125 C-37.6587978 -7.20071069 -55.07106677 -5.25336881 -69.76953125 2.421875 C-84.23716178 11.05099526 -92.36429916 23.67110191 -96.6875 39.8125 C-96.91308594 40.63621094 -97.13867188 41.45992188 -97.37109375 42.30859375 C-100.11301471 54.42977537 -99.04521018 67.59310842 -97.6875 79.8125 C-118.8075 79.8125 -139.9275 79.8125 -161.6875 79.8125 C-158.17981987 62.27409937 -158.17981987 62.27409937 -156 56.375 C-155.74798828 55.67818115 -155.49597656 54.9813623 -155.23632812 54.26342773 C-152.32787794 46.47806725 -148.63773378 39.11406788 -144.6875 31.8125 C-144.20667969 30.91144531 -143.72585937 30.01039063 -143.23046875 29.08203125 C-129.79469878 5.34679496 -107.19085628 -15.52084349 -80.625 -23.1875 C-52.42114705 -29.04112986 -22.21985884 -16.74833358 0 0 Z " fill="#FEFDFD" transform="translate(254.6875,181.1875)"/>
<path d="M0 0 C11.53944226 10.28767805 22.1083195 21.16568499 31.171875 33.70629883 C31.58211914 34.26687988 31.99236328 34.82746094 32.41503906 35.4050293 C63.16068704 77.87199913 76.43096973 132.90174452 68.171875 184.70629883 C58.99501733 237.68746804 30.99449455 285.98459986 -12.828125 317.70629883 C-13.37807129 318.11122559 -13.92801758 318.51615234 -14.49462891 318.93334961 C-56.97203823 349.90412562 -111.96566608 362.71504436 -163.828125 354.70629883 C-205.42553898 347.6071633 -242.87036333 329.23232133 -273.36474609 300.10229492 C-274.3391403 299.17276771 -275.3186499 298.24857301 -276.30322266 297.32983398 C-288.88916176 285.56498745 -299.47299423 271.77485047 -307.828125 256.70629883 C-308.28574219 255.88387695 -308.74335938 255.06145508 -309.21484375 254.21411133 C-336.57398474 204.55973205 -342.99037688 149.09227883 -327.3671875 94.45239258 C-318.01170153 63.66188897 -301.35363596 36.33566761 -279.22412109 13.16967773 C-278.29459389 12.19528353 -277.37039918 11.21577393 -276.45166016 10.23120117 C-208.14532147 -62.84237581 -86.3425842 -68.49253502 0 0 Z M-170.828125 -43.29370117 C-172.84810954 -42.95526222 -174.86873914 -42.62058959 -176.890625 -42.29370117 C-180.92975544 -41.54867864 -184.71092528 -40.45309446 -188.578125 -39.07885742 C-191.74191059 -37.97482808 -194.95575994 -37.06217524 -198.17578125 -36.13745117 C-205.46691232 -33.81803392 -212.31142356 -30.7793903 -219.203125 -27.48120117 C-220.13415039 -27.03615234 -221.06517578 -26.59110352 -222.02441406 -26.13256836 C-228.17386692 -23.16260079 -234.12073419 -20.05587638 -239.828125 -16.29370117 C-241.10816406 -15.48932617 -241.10816406 -15.48932617 -242.4140625 -14.66870117 C-245.70207982 -12.59419471 -245.70207982 -12.59419471 -248.828125 -10.29370117 C-248.828125 -9.63370117 -248.828125 -8.97370117 -248.828125 -8.29370117 C-249.3953125 -8.19831055 -249.9625 -8.10291992 -250.546875 -8.00463867 C-259.5523884 -5.19812593 -267.98816396 5.25529535 -274.828125 11.70629883 C-275.56160156 12.39723633 -276.29507813 13.08817383 -277.05078125 13.80004883 C-293.09868487 29.36938673 -305.03716657 48.48113297 -314.640625 68.51879883 C-315.20052124 69.68318481 -315.20052124 69.68318481 -315.77172852 70.87109375 C-318.19953878 76.043481 -320.11576 81.25925618 -321.828125 86.70629883 C-322.32546429 88.20718311 -322.82551185 89.70717241 -323.328125 91.20629883 C-323.57643066 91.9565332 -323.82473633 92.70676758 -324.08056641 93.47973633 C-324.55944088 94.90603783 -325.05024795 96.32842186 -325.55615234 97.74536133 C-327.57458744 103.49003469 -328.86429191 109.22207217 -329.953125 115.20629883 C-330.20642578 116.53467773 -330.20642578 116.53467773 -330.46484375 117.88989258 C-332.04119138 126.34259127 -332.97731037 134.67314507 -333.06640625 143.27270508 C-333.07610947 144.06103729 -333.08581268 144.84936951 -333.09580994 145.66159058 C-333.1206053 148.19737926 -333.1333222 150.7329012 -333.140625 153.26879883 C-333.14324341 154.13634796 -333.14586182 155.00389709 -333.14855957 155.8977356 C-333.1531718 170.18362735 -332.05336651 183.75087285 -328.828125 197.70629883 C-328.6626416 198.46861816 -328.4971582 199.2309375 -328.32666016 200.01635742 C-323.11975261 223.94902423 -312.22593993 250.29637719 -296.828125 269.70629883 C-296.168125 269.70629883 -295.508125 269.70629883 -294.828125 269.70629883 C-294.73273438 270.27348633 -294.63734375 270.84067383 -294.5390625 271.42504883 C-291.73254976 280.43056223 -281.27912848 288.86633779 -274.828125 295.70629883 C-274.1371875 296.43977539 -273.44625 297.17325195 -272.734375 297.92895508 C-241.13249145 330.502208 -191.9653425 353.12577938 -146.43611145 353.92163086 C-145.29984566 353.93299072 -145.29984566 353.93299072 -144.140625 353.94458008 C-143.32877243 353.95432861 -142.51691986 353.96407715 -141.6804657 353.97412109 C-123.70670847 354.14549253 -106.4091782 353.90525589 -88.828125 349.70629883 C-87.93287109 349.49779297 -87.03761719 349.28928711 -86.11523438 349.07446289 C-78.04685042 347.16352985 -70.42653168 345.07143535 -62.828125 341.70629883 C-60.99629625 341.05621018 -59.16292192 340.41046236 -57.328125 339.76879883 C-24.6110679 327.17951649 4.94644502 304.59138553 26.171875 276.70629883 C26.61466797 276.13411621 27.05746094 275.56193359 27.51367188 274.97241211 C42.02044908 256.06285787 54.63808539 233.04664338 60.171875 209.70629883 C60.35032959 208.96331543 60.52878418 208.22033203 60.71264648 207.45483398 C61.35123077 204.74844018 61.98075995 202.04002491 62.609375 199.33129883 C62.82658203 198.41735352 63.04378906 197.5034082 63.26757812 196.56176758 C66.52708106 182.44704317 67.57895695 168.76155437 67.546875 154.33129883 C67.54655777 153.01169662 67.54655777 153.01169662 67.54623413 151.66543579 C67.51195054 137.34155782 66.47742807 123.68614601 63.171875 109.70629883 C62.98463867 108.86953613 62.79740234 108.03277344 62.60449219 107.1706543 C58.60456556 89.48876794 51.97892754 73.36678208 43.18701172 57.55297852 C42.29129126 55.92353419 41.43361022 54.27330331 40.58203125 52.62036133 C36.84251713 45.38994344 32.1509441 39.1273934 27.171875 32.70629883 C26.23274355 31.39496568 25.29504646 30.082603 24.359375 28.76879883 C19.79123575 22.67370495 14.41003749 17.22167988 9.171875 11.70629883 C8.45644531 10.94833008 7.74101562 10.19036133 7.00390625 9.40942383 C1.78756116 4.03174848 -3.94627871 -0.66311721 -9.828125 -5.29370117 C-10.88773437 -6.16575195 -10.88773437 -6.16575195 -11.96875 -7.05541992 C-13.8719565 -8.57084948 -13.8719565 -8.57084948 -16.828125 -8.29370117 C-17.158125 -9.28370117 -17.488125 -10.27370117 -17.828125 -11.29370117 C-30.48181243 -21.59581837 -47.56732098 -28.89240537 -62.828125 -34.29370117 C-64.55978597 -35.01692428 -66.2890899 -35.74582511 -68.015625 -36.48120117 C-72.09071627 -38.13111617 -76.07334562 -39.08905624 -80.40625 -39.80151367 C-82.828125 -40.29370117 -82.828125 -40.29370117 -85.5078125 -41.21557617 C-100.9670089 -46.23526818 -117.10387028 -46.69935262 -133.203125 -46.73120117 C-134.04099548 -46.73710266 -134.87886597 -46.74300415 -135.74212646 -46.74908447 C-147.74249579 -46.80631434 -159.05393183 -45.55840101 -170.828125 -43.29370117 Z " fill="#FAF9F9" transform="translate(379.828125,79.293701171875)"/>
<path d="M0 0 C5.28 -0.0825 10.56 -0.165 16 -0.25 C18.475 -0.30462402 18.475 -0.30462402 21 -0.36035156 C29.20946789 -0.46673908 36.0935277 -0.50705254 42.49951172 5.37744141 C46.8853374 10.15249549 48.53535791 15.34437755 48.30078125 21.7890625 C47.69626687 26.23263577 46.58904836 30.3211295 44 34 C41.11002619 36.18521325 38.09533625 38.11986983 35 40 C35.4846875 40.47945068 35.969375 40.95890137 36.46875 41.45288086 C38.64840638 43.61184098 40.82424505 45.77460846 43 47.9375 C43.763125 48.69224609 44.52625 49.44699219 45.3125 50.22460938 C46.034375 50.94326172 46.75625 51.66191406 47.5 52.40234375 C48.1703125 53.06741943 48.840625 53.73249512 49.53125 54.41772461 C51 56 51 56 51 57 C31.52621487 58.91472991 31.52621487 58.91472991 25.83105469 55.82226562 C22.12921975 52.76240206 19.48372225 49.08083461 17 45 C16.67 48.96 16.34 52.92 16 57 C10.72 57 5.44 57 0 57 C0 38.19 0 19.38 0 0 Z " fill="#FEFBFB" transform="translate(190,204)"/>
<path d="M0 0 C1.01126953 -0.00708984 2.02253906 -0.01417969 3.06445312 -0.02148438 C8.98329332 0.02870801 13.36606478 0.53748675 18.5625 3.4375 C22.15361257 7.31212146 23.68999816 9.75318771 23.67602539 14.97900391 C23.67594986 15.91982819 23.67587433 16.86065247 23.67579651 17.82998657 C23.67063522 18.84773163 23.66547394 19.86547668 23.66015625 20.9140625 C23.6587413 21.95444672 23.65732635 22.99483093 23.65586853 24.06674194 C23.65025866 27.39869021 23.63770447 30.73057195 23.625 34.0625 C23.61998627 36.31770736 23.61542314 38.57291578 23.61132812 40.828125 C23.60028602 46.36460907 23.58301475 51.90104325 23.5625 57.4375 C18.6125 57.4375 13.6625 57.4375 8.5625 57.4375 C8.5625 54.1375 8.5625 50.8375 8.5625 47.4375 C3.6125 47.4375 -1.3375 47.4375 -6.4375 47.4375 C-6.4375 50.7375 -6.4375 54.0375 -6.4375 57.4375 C-11.3875 57.4375 -16.3375 57.4375 -21.4375 57.4375 C-21.53654755 50.85388556 -21.60905431 44.27070707 -21.65722656 37.68652344 C-21.67731316 35.44783979 -21.7045878 33.20920842 -21.73925781 30.97070312 C-21.78790464 27.74856651 -21.81049874 24.52712499 -21.828125 21.3046875 C-21.84877014 20.30758759 -21.86941528 19.31048767 -21.89068604 18.28317261 C-21.89255508 12.46477319 -21.39951997 9.01868474 -17.4375 4.4375 C-12.11592251 -0.49049395 -6.86941119 -0.13520746 0 0 Z " fill="#FEFEFE" transform="translate(267.4375,203.5625)"/>
<path d="M0 0 C1.25361328 0.00322266 2.50722656 0.00644531 3.79882812 0.00976562 C5.76432617 0.02233398 5.76432617 0.02233398 7.76953125 0.03515625 C9.10481606 0.04017308 10.44010266 0.04473566 11.77539062 0.04882812 C15.04429005 0.06062921 18.31316627 0.07856489 21.58203125 0.09765625 C21.58203125 5.04765625 21.58203125 9.99765625 21.58203125 15.09765625 C13.00203125 15.09765625 4.42203125 15.09765625 -4.41796875 15.09765625 C-4.41796875 17.07765625 -4.41796875 19.05765625 -4.41796875 21.09765625 C-3.35578125 21.05125 -2.29359375 21.00484375 -1.19921875 20.95703125 C14.29156781 20.47546188 14.29156781 20.47546188 19.58203125 25.09765625 C24.47584517 30.60319691 24.05469134 36.32126958 24.11328125 43.4765625 C23.29171377 49.07651141 21.05669587 51.84843124 16.796875 55.45703125 C10.87871179 58.51013975 3.62881484 57.50807965 -2.85546875 57.34765625 C-4.26885496 57.32756455 -5.68226868 57.30931848 -7.09570312 57.29296875 C-10.53769885 57.25259343 -13.97583272 57.17429008 -17.41796875 57.09765625 C-17.41796875 52.14765625 -17.41796875 47.19765625 -17.41796875 42.09765625 C-8.50796875 42.09765625 0.40203125 42.09765625 9.58203125 42.09765625 C9.58203125 39.78765625 9.58203125 37.47765625 9.58203125 35.09765625 C8.43605469 35.1440625 7.29007812 35.19046875 6.109375 35.23828125 C4.57945334 35.27582534 3.04950324 35.31222266 1.51953125 35.34765625 C0.76736328 35.38117188 0.01519531 35.4146875 -0.75976562 35.44921875 C-6.49135897 35.54846712 -9.70861863 34.39359989 -14.41796875 31.09765625 C-18.75463828 25.31543021 -19.01839828 19.11378649 -18.41796875 12.09765625 C-16.6244304 6.81668221 -13.80797673 4.29870374 -9.41796875 1.09765625 C-6.06061738 -0.02146087 -3.53591489 -0.01599961 0 0 Z " fill="#FEFAFA" transform="translate(382.41796875,203.90234375)"/>
<path d="M0 0 C1.24099514 3.72298541 1.04793684 7.11141637 0.95703125 10.98046875 C0.93116625 12.62489644 0.90681212 14.26934843 0.88378906 15.91381836 C0.87126099 16.7752243 0.85873291 17.63663025 0.8458252 18.5241394 C0.64273616 34.7550822 1.32085438 50.11856693 5 66 C5.17080078 66.77827148 5.34160156 67.55654297 5.51757812 68.35839844 C7.21672807 76.06454318 9.34312882 83.52331968 12.265625 90.86328125 C13 93 13 93 13 96 C13.66 96.33 14.32 96.66 15 97 C15 98.32 15 99.64 15 101 C15.66 101.33 16.32 101.66 17 102 C18.02148437 103.77832031 18.02148437 103.77832031 19.09375 106.078125 C19.48433594 106.90957031 19.87492187 107.74101562 20.27734375 108.59765625 C20.68082031 109.47292969 21.08429688 110.34820312 21.5 111.25 C22.10521484 112.53970703 22.10521484 112.53970703 22.72265625 113.85546875 C24.29688289 117.22732713 25.83550705 120.56653886 27.15625 124.046875 C27.83063399 126.18353829 27.83063399 126.18353829 30 127 C31.61798027 129.53249086 33.07803478 132.13734121 34.5625 134.75 C35.80262556 137.11504422 35.80262556 137.11504422 38 138 C38.33 138.99 38.66 139.98 39 141 C39.99 141.99 39.99 141.99 41 143 C41.80082925 144.09753936 42.59093183 145.20292474 43.375 146.3125 C48.07763114 152.64429819 53.58145184 158.28473105 59 164 C59.64195313 164.68449219 60.28390625 165.36898437 60.9453125 166.07421875 C68.05521845 173.44172998 76.28249718 179.58267577 84.5625 185.5625 C85.17037354 186.00440674 85.77824707 186.44631348 86.40454102 186.90161133 C89.40546816 189.24659584 89.40546816 189.24659584 93 190 C95 192 95 192 96 194 C98.3140622 194.73075648 100.64828869 195.40138258 103 196 C103 196.66 103 197.32 103 198 C103.83402344 198.25394531 104.66804688 198.50789062 105.52734375 198.76953125 C108.64812955 199.8753215 111.54241706 201.18838661 114.50195312 202.66479492 C137.21682006 213.93879701 163.25192369 220.98398805 188.6875 221.23828125 C189.49935257 221.24802979 190.31120514 221.25777832 191.1476593 221.26782227 C209.12141653 221.4391937 226.4189468 221.19895707 244 217 C244.89525391 216.79149414 245.79050781 216.58298828 246.71289062 216.36816406 C256.95248764 213.99852002 256.95248764 213.99852002 266.77734375 210.34765625 C270 209 270 209 274 209 C274.33 208.34 274.66 207.68 275 207 C276.32 207 277.64 207 279 207 C279.33 206.34 279.66 205.68 280 205 C282.46389995 203.71423403 284.91080088 202.52286331 287.4375 201.375 C288.13166016 201.05015625 288.82582031 200.7253125 289.54101562 200.390625 C294.72907366 198 294.72907366 198 297 198 C297.33 197.34 297.66 196.68 298 196 C299.5158172 195.14023807 301.06447322 194.33816007 302.625 193.5625 C323.89281254 182.1994902 343.46106758 164.03278426 358 145 C358.44424316 144.42636719 358.88848633 143.85273438 359.34619141 143.26171875 C375.12567604 123.56464402 375.12567604 123.56464402 383 101 C383.66 101 384.32 101 385 101 C385.1134375 100.32066406 385.226875 99.64132812 385.34375 98.94140625 C386.11672215 95.47683464 387.27447228 92.26851284 388.5 88.9375 C391.15575606 81.70365281 392.84012762 74.43971021 394.5625 66.9375 C394.79646484 65.93138672 395.03042969 64.92527344 395.27148438 63.88867188 C395.49255859 62.92380859 395.71363281 61.95894531 395.94140625 60.96484375 C396.14451416 60.0843335 396.34762207 59.20382324 396.55688477 58.29663086 C397.09472371 55.89888588 397.09472371 55.89888588 397 53 C397.66 53 398.32 53 399 53 C399.04898437 52.30132812 399.09796875 51.60265625 399.1484375 50.8828125 C399.22320312 49.97273438 399.29796875 49.06265625 399.375 48.125 C399.44460938 47.22007812 399.51421875 46.31515625 399.5859375 45.3828125 C400 43 400 43 402 41 C396.81938167 94.27531389 371.54657318 143.46840199 330.4609375 178.0390625 C327.05847385 180.81042789 323.55411057 183.42730063 320 186 C319.45005371 186.40492676 318.90010742 186.80985352 318.33349609 187.22705078 C275.85608677 218.1978268 220.86245892 231.00874553 169 223 C127.40258602 215.90086447 89.95776167 197.5260225 59.46337891 168.39599609 C58.4889847 167.46646889 57.5094751 166.54227418 56.52490234 165.62353516 C43.93896324 153.85868862 33.35513077 140.06855164 25 125 C24.54238281 124.17757812 24.08476563 123.35515625 23.61328125 122.5078125 C6.17954022 90.86714111 -3.25618702 57.50134623 -3.125 21.25 C-3.12886719 20.16589844 -3.13273437 19.08179688 -3.13671875 17.96484375 C-3.11859146 3.11859146 -3.11859146 3.11859146 0 0 Z " fill="#EDEAEC" transform="translate(47,211)"/>
<path d="M0 0 C5.61 0 11.22 0 17 0 C17 13.86 17 27.72 17 42 C24.26 42 31.52 42 39 42 C39 46.95 39 51.9 39 57 C26.13 57 13.26 57 0 57 C0 38.19 0 19.38 0 0 Z " fill="#FDF7F7" transform="translate(321,204)"/>
<path d="M0 0 C5.61 0 11.22 0 17 0 C17 18.81 17 37.62 17 57 C11.39 57 5.78 57 0 57 C0 38.19 0 19.38 0 0 Z " fill="#FDF8F8" transform="translate(298,204)"/>
<path d="M0 0 C1.24099514 3.72298541 1.04793684 7.11141637 0.95703125 10.98046875 C0.93116625 12.62489644 0.90681212 14.26934843 0.88378906 15.91381836 C0.87126099 16.7752243 0.85873291 17.63663025 0.8458252 18.5241394 C0.64273616 34.7550822 1.32085438 50.11856693 5 66 C5.17080078 66.77827148 5.34160156 67.55654297 5.51757812 68.35839844 C7.21672807 76.06454318 9.34312882 83.52331968 12.265625 90.86328125 C13 93 13 93 13 96 C13.66 96.33 14.32 96.66 15 97 C15 98.32 15 99.64 15 101 C15.66 101.33 16.32 101.66 17 102 C18.02148437 103.77832031 18.02148437 103.77832031 19.09375 106.078125 C19.48433594 106.90957031 19.87492187 107.74101562 20.27734375 108.59765625 C20.68082031 109.47292969 21.08429688 110.34820312 21.5 111.25 C22.10521484 112.53970703 22.10521484 112.53970703 22.72265625 113.85546875 C24.29688289 117.22732713 25.83550705 120.56653886 27.15625 124.046875 C27.83063399 126.18353829 27.83063399 126.18353829 30 127 C31.61798027 129.53249086 33.07803478 132.13734121 34.5625 134.75 C35.80262556 137.11504422 35.80262556 137.11504422 38 138 C38.33 138.99 38.66 139.98 39 141 C39.99 141.99 39.99 141.99 41 143 C42.6875 144.9375 42.6875 144.9375 44 147 C43.67 147.99 43.34 148.98 43 150 C13.36595348 122.29860869 -0.48172443 73.37428789 -3 34 C-3.12842144 29.74871541 -3.14039064 25.50294557 -3.125 21.25 C-3.12886719 20.16589844 -3.13273437 19.08179688 -3.13671875 17.96484375 C-3.11859146 3.11859146 -3.11859146 3.11859146 0 0 Z " fill="#E5DEE0" transform="translate(47,211)"/>
<path d="M0 0 C1.08152344 0.01417969 2.16304688 0.02835938 3.27734375 0.04296875 C4.90349609 0.05263672 4.90349609 0.05263672 6.5625 0.0625 C9.21484375 0.23046875 9.21484375 0.23046875 10.21484375 1.23046875 C10.28803996 3.92701729 10.30726912 6.59738333 10.27734375 9.29296875 C10.27283203 10.05158203 10.26832031 10.81019531 10.26367188 11.59179688 C10.25185055 13.47138746 10.23391453 15.35093774 10.21484375 17.23046875 C5.26484375 17.23046875 0.31484375 17.23046875 -4.78515625 17.23046875 C-4.82640625 14.79671875 -4.86765625 12.36296875 -4.91015625 9.85546875 C-4.92836426 9.09057129 -4.94657227 8.32567383 -4.96533203 7.53759766 C-4.97996795 5.767596 -4.88444139 3.9977442 -4.78515625 2.23046875 C-2.78515625 0.23046875 -2.78515625 0.23046875 0 0 Z " fill="#CB0404" transform="translate(265.78515625,217.76953125)"/>
<path d="M0 0 C0.495 0.99 0.495 0.99 1 2 C1.99 2.495 1.99 2.495 3 3 C-28.56244584 16.17660393 -67.63389626 25.63534972 -102 19 C-102.99 18.34 -103.98 17.68 -105 17 C-104.16007256 17.00333092 -104.16007256 17.00333092 -103.30317688 17.00672913 C-97.41330613 17.02905435 -91.52344762 17.04401875 -85.63354492 17.05493164 C-83.44278474 17.05992418 -81.25202782 17.06672055 -79.0612793 17.07543945 C-62.00492006 17.17715975 -62.00492006 17.17715975 -45 16 C-45 15.34 -45 14.68 -45 14 C-43.99839844 13.80664062 -42.99679687 13.61328125 -41.96484375 13.4140625 C-40.62236492 13.15119951 -39.27991873 12.88816974 -37.9375 12.625 C-37.28072266 12.49867188 -36.62394531 12.37234375 -35.94726562 12.2421875 C-29.39180073 10.95047028 -23.08038314 9.07197534 -16.75 6.9375 C-15.22632813 6.42509766 -15.22632813 6.42509766 -13.671875 5.90234375 C-12.79015625 5.60457031 -11.9084375 5.30679687 -11 5 C-8 4 -8 4 -5 4 C-4.67 3.34 -4.34 2.68 -4 2 C-2.68 2 -1.36 2 0 2 C0 1.34 0 0.68 0 0 Z " fill="#DED8D8" transform="translate(326,416)"/>
<path d="M0 0 C11.45162524 -0.36940727 11.45162524 -0.36940727 13.8671875 1.2578125 C15.94519834 4.45364986 15.29588556 7.27184199 15 11 C13 13 13 13 9.9609375 13.1953125 C6.640625 13.13020833 3.3203125 13.06510417 0 13 C0 8.71 0 4.42 0 0 Z " fill="#CA0404" transform="translate(206,218)"/>
<path d="M0 0 C28.66599936 -0.71895432 57.34694975 1.62894843 84 13 C83.67 13.99 83.34 14.98 83 16 C81.68 15.67 80.36 15.34 79 15 C79 14.34 79 13.68 79 13 C78.01 13.33 77.02 13.66 76 14 C76 13.34 76 12.68 76 12 C75.13117188 11.87882812 74.26234375 11.75765625 73.3671875 11.6328125 C72.21476562 11.46523438 71.06234375 11.29765625 69.875 11.125 C68.73804688 10.96257813 67.60109375 10.80015625 66.4296875 10.6328125 C63 10 63 10 60.296875 9.05859375 C55.41340993 7.49056172 50.43000642 6.76120922 45.375 5.9375 C44.35792969 5.76412109 43.34085937 5.59074219 42.29296875 5.41210938 C35.21202992 4.24092748 28.1592909 3.49245067 21 3 C21 2.67 21 2.34 21 2 C14.07 1.67 7.14 1.34 0 1 C0 0.67 0 0.34 0 0 Z " fill="#F6F4F3" transform="translate(234,30)"/>
<path d="M0 0 C0.33 1.32 0.66 2.64 1 4 C0.01 4.495 0.01 4.495 -1 5 C-0.979375 5.763125 -0.95875 6.52625 -0.9375 7.3125 C-1 10 -1 10 -2 13 C-2.66 13 -3.32 13 -4 13 C-3.67 13.99 -3.34 14.98 -3 16 C-3.66 16 -4.32 16 -5 16 C-4.938125 16.825 -4.87625 17.65 -4.8125 18.5 C-5.00018716 22.00349371 -5.94694204 24.44483442 -7.20483398 27.67675781 C-8.64704597 31.89047881 -9.34794545 36.24862878 -10.125 40.625 C-10.29386719 41.54023438 -10.46273437 42.45546875 -10.63671875 43.3984375 C-11.31720841 47.10630244 -11.97317667 50.7800487 -12.4296875 54.5234375 C-13 57 -13 57 -16 59 C-14.47181642 42.87424193 -10.91077362 27.32599016 -5.875 11.9375 C-5.63362305 11.19387207 -5.39224609 10.45024414 -5.14355469 9.68408203 C-3.88554661 5.99352345 -2.58552836 2.94505449 0 0 Z " fill="#F7F5F4" transform="translate(61,154)"/>
<path d="M0 0 C1.53579284 4.03934554 0.60491583 7.8809674 -0.125 12 C-0.33249878 13.18662231 -0.33249878 13.18662231 -0.54418945 14.3972168 C-3.61548682 31.31673019 -8.52314961 47.0770387 -15 63 C-15.33 62.34 -15.66 61.68 -16 61 C-16.66 60.67 -17.32 60.34 -18 60 C-17.34 60 -16.68 60 -16 60 C-15.8865625 59.32066406 -15.773125 58.64132812 -15.65625 57.94140625 C-14.88327785 54.47683464 -13.72552772 51.26851284 -12.5 47.9375 C-9.84424394 40.70365281 -8.15987238 33.43971021 -6.4375 25.9375 C-6.20353516 24.93138672 -5.96957031 23.92527344 -5.72851562 22.88867188 C-5.50744141 21.92380859 -5.28636719 20.95894531 -5.05859375 19.96484375 C-4.85548584 19.0843335 -4.65237793 18.20382324 -4.44311523 17.29663086 C-3.90527629 14.89888588 -3.90527629 14.89888588 -4 12 C-3.34 12 -2.68 12 -2 12 C-1.90912109 10.95199219 -1.90912109 10.95199219 -1.81640625 9.8828125 C-1.73261719 8.97273438 -1.64882813 8.06265625 -1.5625 7.125 C-1.48128906 6.22007812 -1.40007812 5.31515625 -1.31640625 4.3828125 C-1 2 -1 2 0 0 Z " fill="#EAE3E4" transform="translate(448,252)"/>
<path d="M0 0 C3.69026484 0.63261683 6.42725897 1.57090359 10 3 C8.68 6.3 7.36 9.6 6 13 C3.03 12.01 0.06 11.02 -3 10 C-2.39009109 6.44219804 -1.4216319 3.3171411 0 0 Z " fill="#FDF7F7" transform="translate(91,219)"/>
<path d="M0 0 C2.97 0.99 5.94 1.98 9 3 C9.66 6.3 10.32 9.6 11 13 C4.94086022 12.1344086 4.94086022 12.1344086 2 11 C-0.02605214 7.35310615 -0.24257345 4.12374871 0 0 Z " fill="#FCF4F4" transform="translate(159,245)"/>
<path d="M0 0 C0.66 0 1.32 0 2 0 C2.90746194 9.86181525 3.36167791 19.25817713 1.6875 29.0625 C1.55754639 29.82933105 1.42759277 30.59616211 1.29370117 31.38623047 C0.28437336 36.71562664 0.28437336 36.71562664 -2 39 C-1.93433838 38.37633545 -1.86867676 37.7526709 -1.80102539 37.11010742 C-1.01823317 29.18370723 -0.68918335 21.27147006 -0.4375 13.3125 C-0.39431641 12.02666016 -0.35113281 10.74082031 -0.30664062 9.41601562 C-0.20163202 6.27742506 -0.09947595 3.13876996 0 0 Z " fill="#FCFDFD" transform="translate(447,225)"/>
<path d="M0 0 C1.98 1.65 3.96 3.3 6 5 C4.02 7.97 4.02 7.97 2 11 C-1.26954202 10.43628586 -2.82575883 9.50037734 -5 7 C-3.70700306 4.11562221 -2.34058637 2.12780579 0 0 Z " fill="#FCF4F4" transform="translate(119,181)"/>
<path d="M0 0 C1.3125 0.875 2.625 1.75 3.9375 2.625 C4.75476563 3.16898437 5.57203125 3.71296875 6.4140625 4.2734375 C8.09958746 5.39881821 9.7820448 6.52881124 11.4609375 7.6640625 C12.23695313 8.18742187 13.01296875 8.71078125 13.8125 9.25 C14.52019531 9.72953125 15.22789062 10.2090625 15.95703125 10.703125 C17.97911869 12.04723207 17.97911869 12.04723207 20.21484375 13.0390625 C22 14 22 14 22.75 16.125 C22.87375 17.053125 22.87375 17.053125 23 18 C13.75815713 14.68848043 5.698548 7.9776961 -2 2 C-1.34 1.34 -0.68 0.68 0 0 Z " fill="#E8E2E4" transform="translate(121,389)"/>
<path d="M0 0 C3.65316671 1.24976756 4.78065836 1.67098753 7 5 C6.66906957 7.79155827 5.79958861 10.29028304 5 13 C0.125 10.125 0.125 10.125 -1 9 C-0.91062197 7.47480724 -0.75462854 5.95318071 -0.5625 4.4375 C-0.46066406 3.61121094 -0.35882813 2.78492188 -0.25390625 1.93359375 C-0.17011719 1.29550781 -0.08632812 0.65742188 0 0 Z " fill="#FCF1F1" transform="translate(162,216)"/>
<path d="M0 0 C30.25448016 -0.46683471 30.25448016 -0.46683471 40 2 C40.495 2.99 40.495 2.99 41 4 C34.4 3.67 27.8 3.34 21 3 C21 2.67 21 2.34 21 2 C14.07 1.67 7.14 1.34 0 1 C0 0.67 0 0.34 0 0 Z " fill="#ECF0EE" transform="translate(234,30)"/>
<path d="M0 0 C0.33 0 0.66 0 1 0 C2.86772943 12.72390676 3.22610642 25.14961856 3 38 C2.67 38 2.34 38 2 38 C2 32.39 2 26.78 2 21 C1.34 21 0.68 21 0 21 C-0.19645093 17.87549468 -0.38063489 14.75038555 -0.5625 11.625 C-0.61857422 10.73554688 -0.67464844 9.84609375 -0.73242188 8.9296875 C-0.78076172 8.07890625 -0.82910156 7.228125 -0.87890625 6.3515625 C-0.9260376 5.56604004 -0.97316895 4.78051758 -1.02172852 3.97119141 C-1 2 -1 2 0 0 Z " fill="#E7ECE9" transform="translate(447,204)"/>
<path d="M0 0 C0.88452148 2.91651929 1.03551293 5.01641583 0.51171875 8.01171875 C0.38321533 8.76598145 0.25471191 9.52024414 0.12231445 10.29736328 C-0.02117432 11.0861084 -0.16466309 11.87485352 -0.3125 12.6875 C-0.45276611 13.49171387 -0.59303223 14.29592773 -0.73754883 15.12451172 C-1.68018961 20.45229367 -2.7334315 25.73886933 -4 31 C-4.33 30.01 -4.66 29.02 -5 28 C-5.66 27.67 -6.32 27.34 -7 27 C-6.7834375 26.16855469 -6.566875 25.33710938 -6.34375 24.48046875 C-6.0653125 23.39378906 -5.786875 22.30710937 -5.5 21.1875 C-5.2215625 20.10855469 -4.943125 19.02960938 -4.65625 17.91796875 C-3.89029052 15.01066025 -3.89029052 15.01066025 -4 12 C-3.34 12 -2.68 12 -2 12 C-1.93941406 11.30132812 -1.87882812 10.60265625 -1.81640625 9.8828125 C-1.73261719 8.97273438 -1.64882813 8.06265625 -1.5625 7.125 C-1.48128906 6.22007812 -1.40007812 5.31515625 -1.31640625 4.3828125 C-1 2 -1 2 0 0 Z " fill="#E0D7D8" transform="translate(448,252)"/>
<path d="M0 0 C1.02802734 0.04833984 2.05605469 0.09667969 3.11523438 0.14648438 C4.72301758 0.2305957 4.72301758 0.2305957 6.36328125 0.31640625 C7.44673828 0.36861328 8.53019531 0.42082031 9.64648438 0.47460938 C12.32320716 0.60431841 14.99956013 0.73928558 17.67578125 0.87890625 C17.34578125 1.53890625 17.01578125 2.19890625 16.67578125 2.87890625 C8.09578125 2.87890625 -0.48421875 2.87890625 -9.32421875 2.87890625 C-7.40577296 -0.95798534 -3.76922241 -0.1874199 0 0 Z " fill="#FEFFFF" transform="translate(238.32421875,30.12109375)"/>
<path d="M0 0 C0.33 0.99 0.66 1.98 1 3 C-3.95 7.95 -8.9 12.9 -14 18 C-14.99 17.67 -15.98 17.34 -17 17 C-11.39 11.39 -5.78 5.78 0 0 Z " fill="#F2F4F3" transform="translate(397,366)"/>
<path d="M0 0 C3 1 3 1 4.1875 3.0625 C4.455625 3.701875 4.72375 4.34125 5 5 C3.71937515 6.7074998 2.38232443 8.37373596 1 10 C0.34 10 -0.32 10 -1 10 C-1.99 8.02 -2.98 6.04 -4 4 C-2.68 2.68 -1.36 1.36 0 0 Z " fill="#FDF6F6" transform="translate(176,194)"/>
<path d="M0 0 C1.26187857 3.7856357 1.01657797 7.23682449 0.87890625 11.16796875 C0.85529526 11.96278152 0.83168427 12.7575943 0.80735779 13.57649231 C0.73081899 16.11368099 0.64675272 18.6505569 0.5625 21.1875 C0.50926951 22.90818785 0.45652917 24.62889094 0.40429688 26.34960938 C0.27521711 30.56660411 0.13938609 34.78333385 0 39 C-0.33 39 -0.66 39 -1 39 C-1.19210448 33.76762064 -1.37085125 28.53502233 -1.53710938 23.30175781 C-1.59558966 21.5207082 -1.65775006 19.73977553 -1.72363281 17.95898438 C-1.81757713 15.40256032 -1.89837558 12.84601088 -1.9765625 10.2890625 C-2.00875885 9.49005524 -2.0409552 8.69104797 -2.0741272 7.86782837 C-2.12738475 5.91245465 -2.07296352 3.95473759 -2 2 C-1.34 1.34 -0.68 0.68 0 0 Z " fill="#FEFFFF" transform="translate(47,211)"/>
<path d="M0 0 C0.66 1.98 1.32 3.96 2 6 C0.02 6.99 -1.96 7.98 -4 9 C-4.99 7.02 -5.98 5.04 -7 3 C-2.25 0 -2.25 0 0 0 Z " fill="#FDF7F7" transform="translate(153,157)"/>
<path d="M0 0 C2.6460081 3.32384351 4.70236112 6.84375088 6.75 10.5625 C7.38421875 11.69816406 8.0184375 12.83382813 8.671875 14.00390625 C10 17 10 17 9 20 C4.6968446 15.21871622 0.18859383 8.77187653 -0.140625 2.1875 C-0.09421875 1.465625 -0.0478125 0.74375 0 0 Z " fill="#F1EEF1" transform="translate(65,318)"/>
<path d="M0 0 C0.33 1.98 0.66 3.96 1 6 C-1.31 6.66 -3.62 7.32 -6 8 C-6.66 6.02 -7.32 4.04 -8 2 C-2.25 0 -2.25 0 0 0 Z " fill="#FBEEEE" transform="translate(200,181)"/>
<path d="M0 0 C5.75 0.875 5.75 0.875 8 2 C8 3.98 8 5.96 8 8 C5.36 7.01 2.72 6.02 0 5 C0 3.35 0 1.7 0 0 Z " fill="#FDF7F7" transform="translate(218,154)"/>
<path d="M0 0 C1.2281827 4.91273082 -0.16603557 7.04073259 -2.4375 11.25 C-2.77587891 11.8996875 -3.11425781 12.549375 -3.46289062 13.21875 C-4.29786887 14.81814494 -5.14753114 16.40985859 -6 18 C-6.99 17.67 -7.98 17.34 -9 17 C-6.03 11.39 -3.06 5.78 0 0 Z " fill="#EEF1F0" transform="translate(431,313)"/>
<path d="M0 0 C2.64 0 5.28 0 8 0 C8.33 1.65 8.66 3.3 9 5 C6.36 5 3.72 5 1 5 C0.67 3.35 0.34 1.7 0 0 Z " fill="#FDF9F9" transform="translate(180,149)"/>
<path d="M0 0 C2.64 0.33 5.28 0.66 8 1 C8 2.65 8 4.3 8 6 C5.36 5.67 2.72 5.34 0 5 C0 3.35 0 1.7 0 0 Z " fill="#FEFBFB" transform="translate(218,179)"/>
<path d="M0 0 C0.33 0.66 0.66 1.32 1 2 C1.66 2.33 2.32 2.66 3 3 C1.06767179 3.86580287 -0.87107194 4.71729941 -2.8125 5.5625 C-3.89144531 6.03816406 -4.97039062 6.51382812 -6.08203125 7.00390625 C-9 8 -9 8 -12 7 C-11.34 7 -10.68 7 -10 7 C-9.67 6.01 -9.34 5.02 -9 4 C-7.68 4 -6.36 4 -5 4 C-4.67 3.34 -4.34 2.68 -4 2 C-2.68 2 -1.36 2 0 2 C0 1.34 0 0.68 0 0 Z " fill="#E9DADD" transform="translate(326,416)"/>
<path d="M0 0 C0.99 0.495 0.99 0.495 2 1 C2.703125 3.21484375 2.703125 3.21484375 3.25 5.9375 C3.44078125 6.83339844 3.6315625 7.72929687 3.828125 8.65234375 C3.88484375 9.42707031 3.9415625 10.20179688 4 11 C3.34 11.66 2.68 12.32 2 13 C0.54815522 8.46298506 -0.23509196 4.81938524 0 0 Z " fill="#FCFDFD" transform="translate(444,193)"/>
<path d="M0 0 C2.875 -0.125 2.875 -0.125 6 0 C7.95216435 1.95216435 8.84826645 3.53199953 10 6 C6.00499382 4.6302836 3.19990508 2.74277578 0 0 Z " fill="#E5D8DD" transform="translate(134,401)"/>
<path d="M0 0 C1.39195915 4.17587745 -0.17676781 6.13474776 -2 10 C-2.33 9.34 -2.66 8.68 -3 8 C-3.66 7.67 -4.32 7.34 -5 7 C-4.34 7 -3.68 7 -3 7 C-2.87625 6.21625 -2.7525 5.4325 -2.625 4.625 C-2 2 -2 2 0 0 Z " fill="#E4DCDE" transform="translate(435,305)"/>
<path d="M0 0 C0.66 0 1.32 0 2 0 C1.7452486 1.31571603 1.47065859 2.62760376 1.1875 3.9375 C1.03667969 4.66839844 0.88585937 5.39929688 0.73046875 6.15234375 C0.48941406 6.76207031 0.24835938 7.37179687 0 8 C-0.99 8.33 -1.98 8.66 -3 9 C-2.01 6.03 -1.02 3.06 0 0 Z " fill="#F0EDEC" transform="translate(437,297)"/>
<path d="M0 0 C0.33 0.99 0.66 1.98 1 3 C-1.35438733 4.42944945 -2.48032433 5.08661261 -5.25 4.625 C-5.8275 4.41875 -6.405 4.2125 -7 4 C-4.69 2.68 -2.38 1.36 0 0 Z " fill="#F0F2F1" transform="translate(334,413)"/>
<path d="M0 0 C2.64 1.65 5.28 3.3 8 5 C6.68 5.33 5.36 5.66 4 6 C1.75 4.1875 1.75 4.1875 0 2 C0 1.34 0 0.68 0 0 Z " fill="#F6EEF2" transform="translate(129,395)"/>
<path d="M0 0 C2.31 1.98 4.62 3.96 7 6 C6.01 6.33 5.02 6.66 4 7 C0 2.25 0 2.25 0 0 Z " fill="#F6F1F5" transform="translate(114,383)"/>
<path d="M0 0 C0.33 0 0.66 0 1 0 C1.33 2.97 1.66 5.94 2 9 C1.01 8.67 0.02 8.34 -1 8 C-1.125 2.25 -1.125 2.25 0 0 Z " fill="#F5F7F6" transform="translate(447,204)"/>
</svg>
